<svg width="20" height="20" viewBox="0 0 20 20" fill="none" xmlns="http://www.w3.org/2000/svg">
<path d="M10.0001 12.0776C9.81402 12.0776 9.63926 12.0052 9.50749 11.8735L4.9183 7.2847C3.49984 5.86638 3.49984 3.55837 4.9183 2.13981C5.6058 1.45261 6.51939 1.07422 7.49099 1.07422C8.43324 1.07422 9.32071 1.42996 10.0001 2.07786C10.6798 1.42996 11.5672 1.07445 12.5092 1.07445C13.4811 1.07445 14.3947 1.45284 15.0819 2.14004C15.7692 2.82748 16.1476 3.74097 16.1476 4.71249C16.1476 5.68447 15.769 6.59796 15.0817 7.28493L10.4925 11.8735C10.361 12.0052 10.186 12.0776 10.0001 12.0776ZM7.49099 1.99881C6.76628 1.99881 6.08479 2.28104 5.57205 2.7935C4.51422 3.85146 4.51422 5.57305 5.57205 6.63079L10.0001 11.0584L14.4279 6.63102C14.9407 6.11856 15.2229 5.43714 15.2229 4.71226C15.2229 3.98761 14.9407 3.30618 14.4282 2.7935C13.9157 2.28104 13.2344 1.99881 12.5095 1.99881C11.7845 1.99881 11.1033 2.28104 10.5908 2.7935L10.0006 3.38408L9.40994 2.7935C8.89743 2.28104 8.21594 1.99881 7.49099 1.99881ZM16.5753 18.9258H11.643V14.3107C11.643 13.5886 11.8696 12.8995 12.2982 12.318C12.3978 12.1827 12.5083 12.0542 12.6269 11.9356L14.4478 10.1149C14.7023 9.86062 15.1164 9.86039 15.3707 10.1149L15.4144 10.1586C15.5849 10.3287 15.724 10.5276 15.8254 10.7461C16.1867 11.5247 16.0214 12.4555 15.4144 13.0625L14.7934 13.6831C14.7622 13.7145 14.7446 13.757 14.7444 13.8012V14.0303L16.6594 12.1155C16.7154 12.0595 16.7473 11.9823 16.7473 11.9035V8.77468C16.7473 8.53452 16.7887 8.29898 16.87 8.07477C17.0533 7.56878 17.4382 7.14648 17.9258 6.91672C18.2006 6.78704 18.4949 6.7214 18.8005 6.7214C18.9748 6.7214 19.1387 6.78935 19.2619 6.91256C19.3852 7.03576 19.4531 7.19964 19.4531 7.37393V12.7201C19.4531 13.3163 19.2113 13.8999 18.7897 14.3213L17.3079 15.803C17.2203 15.8906 17.1391 15.9847 17.0665 16.0831C16.7494 16.5112 16.5751 17.0396 16.5751 17.5717V18.9258H16.5753ZM12.5677 18.0012H15.6506V17.5717C15.6506 16.8429 15.8894 16.1192 16.3233 15.5337C16.4227 15.3989 16.5344 15.2693 16.6543 15.1493L18.1362 13.6676C18.3856 13.4182 18.5287 13.0729 18.5287 12.7201V7.67881C18.4572 7.69638 18.3877 7.72134 18.3204 7.75301C18.0522 7.87945 17.8405 8.11152 17.7397 8.39005C17.6948 8.51332 17.672 8.64351 17.6722 8.77468V11.9037C17.6722 12.226 17.5413 12.5415 17.3134 12.7694L15.3307 14.7519C15.0768 15.006 14.6984 15.0813 14.3665 14.9438C14.0345 14.8063 13.82 14.4854 13.82 14.126V13.8012C13.82 13.5098 13.9335 13.2354 14.1399 13.0292L14.7604 12.4088C15.0944 12.0748 15.1853 11.563 14.9867 11.1352C14.9607 11.0793 14.9302 11.0257 14.8956 10.9748L13.2809 12.5893C13.1951 12.6751 13.1149 12.7682 13.0428 12.8662C12.7321 13.2876 12.568 13.7869 12.568 14.3102V18.0012H12.5677ZM8.35719 18.9258H3.42494V17.5717C3.42494 17.0398 3.25064 16.5114 2.93394 16.0838C2.86048 15.9843 2.77965 15.8904 2.69213 15.803L1.21033 14.3213C0.788679 13.8997 0.546875 13.316 0.546875 12.7201V7.37393C0.546875 7.19964 0.614839 7.03576 0.738053 6.91256C0.861497 6.78935 1.02517 6.7214 1.19947 6.7214C1.50484 6.7214 1.79912 6.78704 2.07422 6.91672C2.56175 7.14648 2.94665 7.56878 3.1302 8.07523C3.21157 8.29898 3.25295 8.53452 3.25295 8.77468V11.9037C3.25295 11.9826 3.28509 12.0598 3.3408 12.1157L5.25581 14.0305V13.8015C5.25581 13.7575 5.23801 13.7143 5.2068 13.6831L4.58588 13.0622C3.97906 12.4555 3.814 11.5247 4.17509 10.7461C4.27646 10.5276 4.4156 10.3287 4.58611 10.1586L4.6298 10.1149C4.88432 9.86039 5.29835 9.86039 5.55263 10.1149L7.37356 11.9356C7.49192 12.054 7.60265 12.1827 7.70228 12.318C8.13087 12.8993 8.35742 13.5883 8.35742 14.3107V18.9258H8.35719ZM4.34962 18.0012H7.43251V14.3107C7.43251 13.7874 7.26838 13.2881 6.95769 12.8667C6.88533 12.7687 6.80534 12.6755 6.71958 12.5896L5.10486 10.975C5.07018 11.0258 5.03967 11.0795 5.01354 11.1354C4.81497 11.5633 4.90582 12.075 5.23963 12.4086L5.86032 13.0292C6.06676 13.2356 6.18026 13.5098 6.18026 13.8015V14.1262C6.18026 14.4854 5.96573 14.8065 5.63377 14.944C5.30181 15.0816 4.92339 15.006 4.66956 14.7519L2.68705 12.7696C2.45911 12.5417 2.32827 12.2262 2.32827 11.904V8.77468C2.32827 8.64247 2.30562 8.51326 2.261 8.39052C2.15998 8.11152 1.94823 7.87945 1.68007 7.75301C1.61325 7.7215 1.54348 7.69664 1.47179 7.67881V12.7201C1.47179 13.0729 1.61488 13.4182 1.86431 13.6676L3.34611 15.1493C3.46609 15.2693 3.57775 15.3989 3.67761 15.5344C4.11083 16.1192 4.34985 16.8431 4.34985 17.5717V18.0012H4.34962Z" fill="white"/>
</svg>
