<svg width="16" height="16" viewBox="0 0 16 18" fill="none" xmlns="http://www.w3.org/2000/svg">
<path fill-rule="evenodd" clip-rule="evenodd" d="M5.39048 1.34035C6.11452 0.519982 7.17738 -7.01377e-07 8.3602 -5.97972e-07L11.2402 -3.46194e-07C13.4273 -1.54994e-07 15.2002 1.77293 15.2002 3.96L15.2002 14.04C15.2002 16.2271 13.4273 18 11.2402 18L8.3602 18C7.17738 18 6.11452 17.48 5.39048 16.6596C4.99578 16.2125 5.0384 15.53 5.48552 15.1353C5.93279 14.7406 6.6152 14.7832 7.00991 15.2303C7.34139 15.6059 7.82279 15.84 8.3602 15.84L11.2402 15.84C12.2344 15.84 13.0402 15.0342 13.0402 14.04L13.0402 3.96C13.0402 2.96582 12.2344 2.16 11.2402 2.16L8.3602 2.16C7.82279 2.16 7.3414 2.39414 7.00991 2.7697C6.6152 3.21682 5.93279 3.25944 5.48552 2.86474C5.0384 2.47003 4.99578 1.78747 5.39048 1.34035Z" fill="white"/>
<path fill-rule="evenodd" clip-rule="evenodd" d="M1.11722 8.23636C0.695448 8.65814 0.695448 9.34185 1.11722 9.76363L3.99722 12.6436C4.419 13.0654 5.10271 13.0654 5.52449 12.6436C5.94626 12.2219 5.94626 11.5381 5.52449 11.1164L2.64449 8.23636C2.22271 7.81459 1.539 7.81459 1.11722 8.23636Z" fill="white"/>
<path fill-rule="evenodd" clip-rule="evenodd" d="M1.11722 9.76375C0.695448 9.34197 0.695448 8.65826 1.11722 8.23648L3.99722 5.35648C4.419 4.93471 5.10271 4.93471 5.52449 5.35648C5.94626 5.77826 5.94626 6.46197 5.52449 6.88375L2.64449 9.76375C2.22271 10.1855 1.539 10.1855 1.11722 9.76375Z" fill="white"/>
<path fill-rule="evenodd" clip-rule="evenodd" d="M10.8809 9.00008C10.8809 8.40363 10.3973 7.92008 9.80086 7.92008L2.60086 7.92008C2.00441 7.92008 1.52086 8.40363 1.52086 9.00008C1.52086 9.59653 2.00441 10.0801 2.60086 10.0801L9.80086 10.0801C10.3973 10.0801 10.8809 9.59653 10.8809 9.00008Z" fill="white"/>
</svg>
