<svg width="66" height="67" viewBox="0 0 66 67" fill="none" xmlns="http://www.w3.org/2000/svg">
<g clip-path="url(#clip0_12527_3445)">
<path d="M28.6 24.9024V14.8C28.6 14.5082 28.4841 14.2284 28.2778 14.0221C28.0715 13.8158 27.7917 13.7 27.5 13.7C27.2082 13.7 26.9284 13.8158 26.7221 14.0221C26.5158 14.2284 26.4 14.5082 26.4 14.8V24.9024C25.9399 25.0668 25.522 25.3312 25.1766 25.6767C24.8311 26.0221 24.5667 26.44 24.4023 26.9001H18.6999C18.4082 26.9001 18.1284 27.016 17.9221 27.2222C17.7158 27.4285 17.5999 27.7083 17.5999 28.0001C17.5999 28.2918 17.7158 28.5716 17.9221 28.7779C18.1284 28.9842 18.4082 29.1001 18.6999 29.1001H24.4023C24.5869 29.6253 24.9016 30.0951 25.3171 30.4656C25.7325 30.8362 26.2352 31.0953 26.778 31.2188C27.3208 31.3424 27.8861 31.3262 28.4209 31.1719C28.9558 31.0176 29.4429 30.7302 29.8365 30.3366C30.2301 29.943 30.5175 29.4559 30.6718 28.9211C30.8261 28.3862 30.8422 27.8209 30.7187 27.2781C30.5952 26.7353 30.3361 26.2326 29.9655 25.8172C29.595 25.4017 29.1252 25.087 28.6 24.9024ZM27.5 29.1001C27.2824 29.1001 27.0697 29.0356 26.8888 28.9147C26.7079 28.7938 26.5669 28.622 26.4837 28.421C26.4004 28.22 26.3786 27.9988 26.4211 27.7855C26.4635 27.5721 26.5683 27.3761 26.7221 27.2222C26.876 27.0684 27.072 26.9636 27.2854 26.9212C27.4987 26.8787 27.7199 26.9005 27.9209 26.9838C28.1219 27.067 28.2937 27.208 28.4146 27.3889C28.5355 27.5698 28.6 27.7825 28.6 28.0001C28.6 28.2918 28.4841 28.5716 28.2778 28.7779C28.0715 28.9842 27.7917 29.1001 27.5 29.1001Z" fill="#554D77"/>
<path d="M54.6262 32.4583C54.873 30.985 54.9981 29.4938 55.0002 28C55.0002 22.561 53.3873 17.2441 50.3656 12.7217C47.3438 8.1993 43.0489 4.67452 38.0239 2.5931C32.9989 0.511671 27.4695 -0.0329249 22.135 1.02818C16.8004 2.08928 11.9004 4.70842 8.0544 8.5544C4.20842 12.4004 1.58928 17.3004 0.528177 22.635C-0.532925 27.9695 0.0116715 33.4989 2.0931 38.5239C4.17452 43.5489 7.6993 47.8438 12.2217 50.8656C16.7441 53.8873 22.061 55.5002 27.5 55.5002C28.9939 55.4986 30.4851 55.3735 31.9583 55.1262C32.9969 57.876 34.708 60.3216 36.9354 62.2397C39.1628 64.1577 41.8353 65.4868 44.7088 66.1057C47.5823 66.7246 50.565 66.6135 53.3845 65.7825C56.2039 64.9514 58.7701 63.427 60.8486 61.3486C62.927 59.2701 64.4514 56.7039 65.2825 53.8845C66.1135 51.065 66.2246 48.0823 65.6057 45.2088C64.9868 42.3353 63.6577 39.6628 61.7397 37.4354C59.8216 35.208 57.376 33.4969 54.6262 32.4583ZM27.5 53.3002C22.4961 53.3002 17.6045 51.8164 13.4439 49.0363C9.28335 46.2563 6.04056 42.305 4.12565 37.682C2.21074 33.059 1.70971 27.9719 2.68592 23.0642C3.66214 18.1564 6.07175 13.6483 9.61004 10.11C13.1483 6.57175 17.6564 4.16214 22.5642 3.18592C27.4719 2.20971 32.559 2.71074 37.182 4.62565C41.805 6.54056 45.7563 9.78335 48.5363 13.9439C51.3164 18.1045 52.8002 22.9961 52.8002 28C52.7905 29.272 52.6834 30.5415 52.4801 31.7972C51.1443 31.4719 49.7749 31.305 48.4002 31.3C48.3078 31.3 48.2187 31.3121 48.1263 31.3143C48.3078 30.2189 48.3994 29.1104 48.4002 28C48.4002 23.8663 47.1744 19.8255 44.8778 16.3885C42.5813 12.9515 39.3171 10.2726 35.4981 8.69075C31.6791 7.10887 27.4768 6.69497 23.4226 7.50141C19.3683 8.30785 15.6443 10.2984 12.7213 13.2213C9.7984 16.1443 7.80785 19.8683 7.00141 23.9226C6.19497 27.9768 6.60887 32.1791 8.19075 35.9981C9.77264 39.8171 12.4515 43.0813 15.8885 45.3778C19.3255 47.6744 23.3663 48.9002 27.5 48.9002C28.6104 48.8994 29.7189 48.8078 30.8143 48.6263C30.8143 48.7187 30.8 48.8078 30.8 48.9002C30.8052 50.2745 30.9717 51.6435 31.2961 52.979C30.0409 53.1834 28.7717 53.2907 27.5 53.3002ZM31.0057 46.3558C30.2118 46.5141 29.408 46.6181 28.6 46.6671V44.5001C28.6 44.2084 28.4841 43.9286 28.2778 43.7223C28.0715 43.516 27.7917 43.4001 27.5 43.4001C27.2082 43.4001 26.9285 43.516 26.7222 43.7223C26.5159 43.9286 26.4 44.2084 26.4 44.5001V46.644C23.869 46.4997 21.3947 45.8374 19.13 44.6981L20.2025 42.8391C20.3461 42.5866 20.384 42.2875 20.3079 42.0072C20.2317 41.7269 20.0478 41.488 19.7963 41.3428C19.5447 41.1976 19.2459 41.1577 18.9651 41.232C18.6843 41.3062 18.4442 41.4885 18.2973 41.7391L17.2204 43.6091C15.1054 42.2102 13.2942 40.399 11.8953 38.284L13.7653 37.2071C13.8914 37.1354 14.0021 37.0394 14.091 36.9248C14.1798 36.8101 14.2452 36.679 14.2832 36.539C14.3212 36.399 14.3311 36.2529 14.3124 36.109C14.2937 35.9652 14.2468 35.8264 14.1742 35.7008C14.1017 35.5752 14.005 35.4651 13.8898 35.377C13.7745 35.2889 13.643 35.2244 13.5028 35.1873C13.3625 35.1503 13.2163 35.1413 13.0726 35.1609C12.9288 35.1806 12.7904 35.2285 12.6653 35.3018L10.8063 36.3744C9.66492 34.1087 9.0011 31.6327 8.85594 29.1H10.9999C11.2916 29.1 11.5714 28.9841 11.7777 28.7778C11.984 28.5715 12.0999 28.2917 12.0999 28C12.0999 27.7082 11.984 27.4285 11.7777 27.2222C11.5714 27.0159 11.2916 26.9 10.9999 26.9H8.85594C9.00032 24.369 9.66263 21.8947 10.8019 19.63L12.6609 20.7025C12.786 20.7759 12.9244 20.8238 13.0682 20.8434C13.2119 20.8631 13.3581 20.8541 13.4984 20.817C13.6386 20.78 13.7701 20.7155 13.8854 20.6274C14.0006 20.5393 14.0973 20.4292 14.1698 20.3036C14.2424 20.178 14.2893 20.0392 14.308 19.8954C14.3267 19.7515 14.3168 19.6054 14.2788 19.4654C14.2408 19.3254 14.1754 19.1943 14.0866 19.0796C13.9977 18.965 13.887 18.869 13.7609 18.7973L11.8909 17.7204C13.2898 15.6054 15.101 13.7942 17.216 12.3953L18.2929 14.2653C18.3646 14.3914 18.4606 14.5021 18.5752 14.591C18.6899 14.6798 18.821 14.7452 18.961 14.7832C19.101 14.8212 19.2471 14.8311 19.391 14.8124C19.5348 14.7937 19.6736 14.7468 19.7992 14.6742C19.9248 14.6017 20.0349 14.505 20.123 14.3898C20.2111 14.2745 20.2756 14.143 20.3126 14.0028C20.3497 13.8625 20.3587 13.7163 20.339 13.5726C20.3194 13.4288 20.2715 13.2904 20.1981 13.1653L19.1256 11.3063C21.3913 10.1649 23.8672 9.5011 26.4 9.35594V11.4999C26.4 11.7916 26.5159 12.0714 26.7222 12.2777C26.9285 12.484 27.2082 12.5999 27.5 12.5999C27.7917 12.5999 28.0715 12.484 28.2778 12.2777C28.4841 12.0714 28.6 11.7916 28.6 11.4999V9.35594C31.1309 9.50032 33.6053 10.1626 35.87 11.3019L34.7974 13.1609C34.7241 13.286 34.6762 13.4244 34.6565 13.5682C34.6369 13.7119 34.6459 13.8581 34.6829 13.9984C34.72 14.1386 34.7845 14.2701 34.8726 14.3854C34.9607 14.5006 35.0708 14.5973 35.1964 14.6698C35.322 14.7424 35.4608 14.7893 35.6046 14.808C35.7485 14.8267 35.8946 14.8168 36.0346 14.7788C36.1746 14.7408 36.3057 14.6754 36.4204 14.5866C36.535 14.4977 36.631 14.387 36.7027 14.2609L37.7796 12.3909C39.8946 13.7898 41.7058 15.601 43.1047 17.716L41.2347 18.7929C41.1086 18.8646 40.9979 18.9606 40.909 19.0752C40.8201 19.1899 40.7548 19.321 40.7168 19.461C40.6788 19.601 40.6689 19.7471 40.6876 19.891C40.7063 20.0348 40.7532 20.1736 40.8258 20.2992C40.8983 20.4248 40.995 20.5349 41.1102 20.623C41.2254 20.7111 41.357 20.7756 41.4972 20.8126C41.6375 20.8497 41.7837 20.8587 41.9274 20.839C42.0711 20.8194 42.2096 20.7715 42.3347 20.6981L44.1937 19.6256C45.3351 21.8913 45.9989 24.3672 46.144 26.9H44.0001C43.7084 26.9 43.4286 27.0159 43.2223 27.2222C43.016 27.4285 42.9001 27.7082 42.9001 28C42.9001 28.2917 43.016 28.5715 43.2223 28.7778C43.4286 28.9841 43.7084 29.1 44.0001 29.1H46.1671C46.1182 29.9081 46.0142 30.7118 45.8558 31.5057C42.1139 32.0578 38.6492 33.8001 35.9747 36.4747C33.3001 39.1492 31.5578 42.6139 31.0057 46.3558ZM48.4002 64.3003C45.3543 64.3003 42.3768 63.3971 39.8443 61.7049C37.3118 60.0127 35.3379 57.6075 34.1723 54.7935C33.0067 51.9795 32.7017 48.8831 33.2959 45.8957C33.8902 42.9084 35.3569 40.1644 37.5106 38.0106C39.6644 35.8569 42.4084 34.3902 45.3957 33.7959C48.3831 33.2017 51.4795 33.5067 54.2935 34.6723C57.1075 35.8379 59.5127 37.8118 61.2049 40.3443C62.8971 42.8768 63.8003 45.8543 63.8003 48.9002C63.7959 52.9832 62.172 56.8977 59.2849 59.7849C56.3977 62.672 52.4832 64.2959 48.4002 64.3003Z" fill="#FF4C5A"/>
<path d="M48.4002 35.7C47.5249 35.7 46.6856 36.0476 46.0667 36.6665C45.4478 37.2854 45.1001 38.1248 45.1001 39V51.1001C45.1001 51.9753 45.4478 52.8147 46.0667 53.4335C46.6856 54.0524 47.5249 54.4001 48.4002 54.4001C49.2754 54.4001 50.1147 54.0524 50.7336 53.4335C51.3525 52.8147 51.7002 51.9753 51.7002 51.1001V39C51.7002 38.1248 51.3525 37.2854 50.7336 36.6665C50.1147 36.0476 49.2754 35.7 48.4002 35.7ZM49.5002 51.1001C49.5002 51.3918 49.3843 51.6716 49.178 51.8779C48.9717 52.0842 48.6919 52.2001 48.4002 52.2001C48.1084 52.2001 47.8286 52.0842 47.6223 51.8779C47.416 51.6716 47.3001 51.3918 47.3001 51.1001V39C47.3001 38.7082 47.416 38.4284 47.6223 38.2222C47.8286 38.0159 48.1084 37.9 48.4002 37.9C48.6919 37.9 48.9717 38.0159 49.178 38.2222C49.3843 38.4284 49.5002 38.7082 49.5002 39V51.1001Z" fill="#554D77"/>
<path d="M48.4002 55.5002C47.7475 55.5002 47.1094 55.6938 46.5668 56.0564C46.0241 56.419 45.6011 56.9344 45.3513 57.5374C45.1016 58.1404 45.0362 58.8039 45.1635 59.4441C45.2909 60.0842 45.6052 60.6722 46.0667 61.1337C46.5282 61.5953 47.1162 61.9096 47.7564 62.0369C48.3965 62.1642 49.06 62.0989 49.663 61.8491C50.266 61.5993 50.7814 61.1764 51.144 60.6337C51.5066 60.091 51.7002 59.453 51.7002 58.8003C51.7002 57.925 51.3525 57.0857 50.7336 56.4668C50.1148 55.8479 49.2754 55.5002 48.4002 55.5002ZM48.4002 59.9003C48.1826 59.9003 47.9699 59.8358 47.789 59.7149C47.6081 59.594 47.4671 59.4222 47.3839 59.2212C47.3006 59.0202 47.2788 58.799 47.3213 58.5857C47.3637 58.3723 47.4685 58.1763 47.6223 58.0224C47.7762 57.8686 47.9722 57.7638 48.1856 57.7214C48.3989 57.679 48.6201 57.7007 48.8211 57.784C49.0221 57.8673 49.1939 58.0082 49.3148 58.1891C49.4357 58.37 49.5002 58.5827 49.5002 58.8003C49.5002 59.092 49.3843 59.3718 49.178 59.5781C48.9717 59.7844 48.6919 59.9003 48.4002 59.9003Z" fill="#554D77"/>
</g>
<defs>
<clipPath id="clip0_12527_3445">
<rect width="66" height="66" fill="white" transform="translate(0 0.5)"/>
</clipPath>
</defs>
</svg>
