<svg width="24" height="24" viewBox="0 0 24 24" fill="none" xmlns="http://www.w3.org/2000/svg">
<g clip-path="url(#clip0_7516_3638)">
<path d="M17.4105 0.4395C17.2711 0.300024 17.1055 0.189413 16.9233 0.113999C16.741 0.0385838 16.5457 -0.00015458 16.3485 4.6356e-07H7.6515C7.254 4.6356e-07 6.8715 0.1575 6.591 0.4395L0.441003 6.591C0.300933 6.72976 0.189821 6.89496 0.114117 7.07701C0.0384126 7.25906 -0.000376026 7.45434 2.7475e-06 7.6515V16.35C2.7475e-06 16.7475 0.157503 17.13 0.439503 17.4105L6.5895 23.562C6.8715 23.8425 7.2525 24 7.6515 24H16.35C16.7475 24 17.13 23.8425 17.4105 23.5605L23.5605 17.409C23.8425 17.1285 24 16.7475 24 16.3485V7.6515C24 7.254 23.8425 6.8715 23.5605 6.591L17.4105 0.4395ZM22.5 16.3485L16.3485 22.5H7.6515L1.5 16.3485V7.6515L7.6515 1.5H16.35L22.5 7.6515V16.3485ZM12 4.5C11.6022 4.5 11.2206 4.65804 10.9393 4.93934C10.658 5.22064 10.5 5.60218 10.5 6V13.5C10.5 13.8978 10.658 14.2794 10.9393 14.5607C11.2206 14.842 11.6022 15 12 15C12.3978 15 12.7794 14.842 13.0607 14.5607C13.342 14.2794 13.5 13.8978 13.5 13.5V6C13.5 5.60218 13.342 5.22064 13.0607 4.93934C12.7794 4.65804 12.3978 4.5 12 4.5ZM10.5 18C10.5 18.197 10.5388 18.392 10.6142 18.574C10.6896 18.756 10.8001 18.9214 10.9393 19.0607C11.0786 19.1999 11.244 19.3104 11.426 19.3858C11.608 19.4612 11.803 19.5 12 19.5C12.3978 19.5 12.7794 19.342 13.0607 19.0607C13.2 18.9214 13.3104 18.756 13.3858 18.574C13.4612 18.392 13.5 18.197 13.5 18C13.5 17.6022 13.342 17.2206 13.0607 16.9393C12.7794 16.658 12.3978 16.5 12 16.5C11.6022 16.5 11.2206 16.658 10.9393 16.9393C10.658 17.2206 10.5 17.6022 10.5 18Z" fill="#FF4C5A"/>
</g>
<defs>
<clipPath id="clip0_7516_3638">
<rect width="24" height="24" fill="white"/>
</clipPath>
</defs>
</svg>
