<svg width="18" height="18" viewBox="0 0 18 18" fill="none" xmlns="http://www.w3.org/2000/svg">
<g id="Eye" clip-path="url(#clip0_14556_10355)">
<g id="Layer 2">
<g id="eye">
<path id="Vector" d="M17.8795 8.57339C17.3037 7.62225 14.137 2.84942 8.7571 3.00366C3.78207 3.12362 0.903218 7.28806 0.120529 8.57339C0.0415692 8.70365 0 8.85141 0 9.00183C0 9.15224 0.0415692 9.30001 0.120529 9.43027C0.687304 10.3643 3.7191 15 9.01799 15H9.2429C14.2179 14.88 17.1058 10.7156 17.8795 9.43027C17.9584 9.30001 18 9.15224 18 9.00183C18 8.85141 17.9584 8.70365 17.8795 8.57339ZM9.19792 13.2862C5.32046 13.3719 2.79247 10.21 2.00078 9.00183C2.90042 7.62225 5.24849 4.80311 8.84706 4.71742C12.7065 4.62316 15.2435 7.79362 16.0442 9.00183C15.1176 10.3814 12.7965 13.2005 9.19792 13.2862Z" fill="white"/>
<path id="Vector_2" d="M9 6C8.40666 6 7.82664 6.17595 7.33329 6.50559C6.83994 6.83523 6.45543 7.30377 6.22836 7.85195C6.0013 8.40013 5.94189 9.00333 6.05765 9.58527C6.1734 10.1672 6.45912 10.7018 6.87868 11.1213C7.29824 11.5409 7.83279 11.8266 8.41473 11.9424C8.99667 12.0581 9.59987 11.9987 10.1481 11.7716C10.6962 11.5446 11.1648 11.1601 11.4944 10.6667C11.8241 10.1734 12 9.59334 12 9C12 8.20435 11.6839 7.44129 11.1213 6.87868C10.5587 6.31607 9.79565 6 9 6ZM9 10.2857C8.74571 10.2857 8.49713 10.2103 8.2857 10.069C8.07426 9.92776 7.90947 9.72695 7.81216 9.49202C7.71484 9.25709 7.68938 8.99857 7.73899 8.74917C7.7886 8.49976 7.91105 8.27067 8.09086 8.09086C8.27067 7.91105 8.49977 7.7886 8.74917 7.73899C8.99857 7.68938 9.25709 7.71484 9.49202 7.81215C9.72696 7.90947 9.92776 8.07426 10.069 8.2857C10.2103 8.49713 10.2857 8.74571 10.2857 9C10.2857 9.34099 10.1503 9.66802 9.90914 9.90914C9.66802 10.1503 9.34099 10.2857 9 10.2857Z" fill="white"/>
</g>
</g>
</g>
<defs>
<clipPath id="clip0_14556_10355">
<rect width="18" height="18" fill="white"/>
</clipPath>
</defs>
</svg>
