<svg width="16" height="16" viewBox="0 0 16 16" fill="none" xmlns="http://www.w3.org/2000/svg">
<g clip-path="url(#clip0_12790_4210)">
<path fill-rule="evenodd" clip-rule="evenodd" d="M5.90625 13.4067C5.90616 13.6933 5.96514 13.9768 6.0795 14.2395C6.09781 13.8921 6.35413 13.6278 6.79038 13.5108C7.06987 13.4363 7.35583 13.3886 7.64437 13.3683C7.44281 13.2898 7.27496 13.1434 7.16976 12.9544C7.06457 12.7654 7.02861 12.5456 7.0681 12.3329C7.10759 12.1203 7.22005 11.928 7.38609 11.7894C7.55213 11.6507 7.76134 11.5744 7.97765 11.5735C8.19396 11.5725 8.40382 11.6471 8.57103 11.7843C8.73825 11.9216 8.85234 12.1128 8.89364 12.3252C8.93495 12.5375 8.90087 12.7576 8.79728 12.9475C8.6937 13.1374 8.5271 13.2852 8.32622 13.3654C8.62499 13.3847 8.92112 13.4334 9.21034 13.5108C9.64641 13.6278 9.90225 13.8919 9.921 14.2391C10.0447 13.9537 10.1033 13.6443 10.0925 13.3334C10.0817 13.0226 10.0017 12.718 9.85844 12.4419C9.71517 12.1658 9.51219 11.9251 9.26424 11.7373C9.01629 11.5495 8.7296 11.4192 8.42502 11.3561C8.12045 11.293 7.80562 11.2985 7.50344 11.3722C7.20126 11.446 6.91931 11.5862 6.67809 11.7826C6.43687 11.979 6.24244 12.2266 6.10893 12.5076C5.97541 12.7885 5.90618 13.0957 5.90625 13.4067ZM7.98194 12.9321C7.89712 12.9321 7.81421 12.9069 7.74368 12.8598C7.67315 12.8127 7.61818 12.7457 7.58572 12.6674C7.55325 12.589 7.54475 12.5028 7.5613 12.4196C7.57784 12.3364 7.61869 12.26 7.67866 12.2001C7.73864 12.1401 7.81505 12.0993 7.89823 12.0827C7.98142 12.0662 8.06764 12.0747 8.146 12.1072C8.22435 12.1396 8.29131 12.1946 8.33842 12.2651C8.38552 12.3357 8.41065 12.4186 8.41063 12.5034C8.4105 12.617 8.36529 12.726 8.28493 12.8064C8.20456 12.8867 8.09559 12.9319 7.98194 12.9321ZM8 15.5005C7.78023 15.5007 7.56183 15.466 7.35297 15.3976V14.4981C7.35297 14.4317 7.32663 14.3682 7.27975 14.3213C7.23286 14.2744 7.16927 14.2481 7.10297 14.2481C7.03666 14.2481 6.97308 14.2744 6.92619 14.3213C6.87931 14.3682 6.85297 14.4317 6.85297 14.4981V15.1569C6.75554 15.0928 6.66357 15.0207 6.57797 14.9415V14.2797C6.57797 14.1189 6.76372 14.0354 6.92 13.9937C7.26723 13.9015 7.62505 13.8553 7.98431 13.8562H8.01825C8.37706 13.8554 8.73441 13.9017 9.08122 13.9937C9.23706 14.0354 9.42303 14.1189 9.42303 14.2797V14.9412C9.33738 15.0205 9.24541 15.0926 9.14803 15.1569V14.4981C9.14803 14.4317 9.12169 14.3682 9.07481 14.3213C9.02792 14.2744 8.96434 14.2481 8.89803 14.2481C8.83173 14.2481 8.76814 14.2744 8.72125 14.3213C8.67437 14.3682 8.64803 14.4317 8.64803 14.4981V15.3974C8.43885 15.4657 8.22018 15.5005 8.00012 15.5005L8 15.5005ZM5.40625 13.4068C5.40625 12.8938 5.55837 12.3923 5.84338 11.9658C6.12838 11.5392 6.53347 11.2068 7.00741 11.0105C7.48136 10.8141 8.00288 10.7628 8.50602 10.8629C9.00915 10.9629 9.47132 11.21 9.83406 11.5727C10.1968 11.9355 10.4438 12.3976 10.5439 12.9008C10.644 13.4039 10.5926 13.9254 10.3963 14.3994C10.2 14.8733 9.86755 15.2784 9.44101 15.5634C9.01447 15.8484 8.513 16.0005 8 16.0005C7.31233 15.9997 6.65305 15.7262 6.1668 15.24C5.68055 14.7537 5.40703 14.0944 5.40625 13.4068ZM8 4.68802C8.21988 4.68803 8.43838 4.65337 8.64747 4.58533V3.68549C8.64747 3.61918 8.67381 3.5556 8.72069 3.50871C8.76758 3.46183 8.83116 3.43549 8.89747 3.43549C8.96377 3.43549 9.02736 3.46183 9.07425 3.50871C9.12113 3.5556 9.14747 3.61918 9.14747 3.68549V4.34436C9.24491 4.28018 9.33689 4.20806 9.42247 4.12874V3.46693C9.42247 3.30661 9.23647 3.22318 9.08041 3.18114C8.37168 2.99777 7.62794 2.99777 6.91922 3.18114C6.76337 3.22311 6.57737 3.30661 6.57737 3.46693V4.12868C6.663 4.20794 6.75497 4.28006 6.85238 4.3443V3.68549C6.85238 3.61918 6.87871 3.5556 6.9256 3.50871C6.97248 3.46183 7.03607 3.43549 7.10238 3.43549C7.16868 3.43549 7.23227 3.46183 7.27915 3.50871C7.32604 3.5556 7.35238 3.61918 7.35238 3.68549V4.5848C7.56138 4.65321 7.77992 4.68802 7.99984 4.68793L8 4.68802ZM8.44722 1.69089C8.44719 1.60612 8.42202 1.52326 8.3749 1.45278C8.32778 1.38231 8.26083 1.32738 8.1825 1.29496C8.10417 1.26253 8.01798 1.25406 7.93484 1.27061C7.85169 1.28716 7.77532 1.328 7.71538 1.38795C7.65544 1.44789 7.61462 1.52427 7.59808 1.60742C7.58154 1.69056 7.59003 1.77675 7.62246 1.85507C7.6549 1.9334 7.70983 2.00035 7.78031 2.04746C7.8508 2.09457 7.93366 2.11972 8.01844 2.11974C8.13214 2.11964 8.24115 2.07441 8.32153 1.99399C8.40191 1.91357 8.44708 1.80453 8.44713 1.69083L8.44722 1.69089ZM5.90625 2.59439C5.90611 2.2833 5.97529 1.97607 6.10878 1.69507C6.24226 1.41406 6.43669 1.16633 6.67792 0.969893C6.91916 0.773452 7.20114 0.633238 7.50336 0.559445C7.80558 0.485651 8.12044 0.480132 8.42506 0.54329C8.72968 0.606448 9.0164 0.736695 9.26437 0.924561C9.51234 1.11243 9.71533 1.35319 9.85858 1.62935C10.0018 1.9055 10.0817 2.21011 10.0925 2.52102C10.1033 2.83194 10.0446 3.14134 9.92078 3.42674C9.90225 3.07955 9.64578 2.81521 9.21012 2.69861C8.93063 2.62392 8.64463 2.57614 8.35603 2.55593C8.55731 2.47726 8.72485 2.33083 8.82975 2.14189C8.93466 1.95295 8.97037 1.73333 8.93072 1.52089C8.89107 1.30845 8.77855 1.11649 8.61256 0.978112C8.44657 0.839729 8.2375 0.76359 8.02139 0.762817C7.80528 0.762045 7.59567 0.836688 7.42869 0.973881C7.26171 1.11107 7.14783 1.30222 7.10666 1.51437C7.0655 1.72653 7.09963 1.9464 7.20319 2.13608C7.30674 2.32577 7.47322 2.47338 7.67394 2.55349C7.37522 2.57242 7.07912 2.62104 6.79003 2.69861C6.354 2.81514 6.09769 3.07949 6.07937 3.42674C5.96495 3.16418 5.90601 2.88081 5.90625 2.59439ZM10.5939 2.59439C10.5939 3.10738 10.4418 3.60883 10.1567 4.03534C9.87173 4.46186 9.46665 4.79428 8.99271 4.99058C8.51877 5.18687 7.99727 5.23823 7.49415 5.13814C6.99102 5.03806 6.52887 4.79104 6.16614 4.42831C5.80341 4.06558 5.55638 3.60343 5.45629 3.10031C5.3562 2.59719 5.40755 2.07569 5.60384 1.60175C5.80013 1.12781 6.13255 0.722715 6.55906 0.437694C6.98557 0.152674 7.48702 0.000525365 8 0.000488281C8.6877 0.00123282 9.34702 0.274763 9.83329 0.761058C10.3196 1.24735 10.593 1.90669 10.5938 2.59439H10.5939ZM15.5002 8.00064C15.5003 7.68957 15.431 7.38239 15.2975 7.10143C15.1639 6.82048 14.9695 6.57281 14.7282 6.37642C14.487 6.18004 14.205 6.03988 13.9028 5.96614C13.6006 5.89239 13.2858 5.88691 12.9812 5.95009C12.6766 6.01328 12.3899 6.14354 12.142 6.33141C11.894 6.51927 11.6911 6.76003 11.5478 7.03617C11.4046 7.31231 11.3247 7.61689 11.3139 7.92778C11.3032 8.23867 11.3618 8.54805 11.4856 8.83343C11.5042 8.48602 11.7606 8.22168 12.1967 8.10471C12.4763 8.0301 12.7623 7.98246 13.0509 7.96246C12.8494 7.88398 12.6815 7.73762 12.5763 7.54861C12.4711 7.35961 12.4351 7.13981 12.4746 6.92714C12.5141 6.71446 12.6266 6.52224 12.7927 6.38364C12.9588 6.24503 13.168 6.16872 13.3843 6.16787C13.6006 6.16703 13.8105 6.2417 13.9776 6.37901C14.1447 6.51632 14.2587 6.70766 14.2999 6.92002C14.3411 7.13238 14.3068 7.35245 14.2031 7.54227C14.0994 7.73209 13.9326 7.87976 13.7317 7.9598C14.0307 7.979 14.3272 8.02753 14.6167 8.10471C15.0525 8.22124 15.3084 8.48558 15.3272 8.83283C15.4414 8.57024 15.5002 8.28691 15.5 8.00055L15.5002 8.00064ZM13.8169 7.09702C13.8169 7.18187 13.7918 7.26484 13.7447 7.33542C13.6976 7.406 13.6306 7.46102 13.5523 7.49352C13.4739 7.52603 13.3876 7.53455 13.3044 7.51802C13.2212 7.50148 13.1447 7.46063 13.0847 7.40064C13.0247 7.34064 12.9838 7.26419 12.9673 7.18097C12.9508 7.09774 12.9593 7.01148 12.9918 6.9331C13.0242 6.85471 13.0793 6.78772 13.1498 6.74061C13.2204 6.6935 13.3034 6.66838 13.3882 6.66843C13.5019 6.66862 13.6108 6.71385 13.6911 6.79421C13.7715 6.87456 13.8167 6.98348 13.8169 7.09711V7.09702ZM13.4061 10.0944C13.1863 10.0943 12.9679 10.0596 12.759 9.99143V9.09186C12.759 9.02556 12.7327 8.96197 12.6858 8.91509C12.6389 8.8682 12.5753 8.84186 12.509 8.84186C12.4427 8.84186 12.3791 8.8682 12.3323 8.91509C12.2854 8.96197 12.259 9.02556 12.259 9.09186V9.75052C12.1615 9.68663 12.0695 9.61462 11.984 9.53527V8.87308C11.984 8.71277 12.1698 8.62933 12.3258 8.58752C12.6731 8.49536 13.0309 8.44913 13.3902 8.45002H13.4245C13.7832 8.44928 14.1404 8.4955 14.487 8.58752C14.6431 8.62927 14.8291 8.71277 14.8291 8.87308V9.53483C14.7433 9.61407 14.6513 9.68619 14.5538 9.75046V9.09186C14.5538 9.02556 14.5274 8.96197 14.4806 8.91509C14.4337 8.8682 14.3701 8.84186 14.3038 8.84186C14.2375 8.84186 14.1739 8.8682 14.127 8.91509C14.0801 8.96197 14.0538 9.02556 14.0538 9.09186V9.99121C13.8446 10.0595 13.6259 10.0943 13.4058 10.0943L13.4061 10.0944ZM16 8.00061C16 8.51361 15.8478 9.01508 15.5628 9.44162C15.2778 9.86816 14.8727 10.2006 14.3988 10.3969C13.9249 10.5932 13.4033 10.6446 12.9002 10.5445C12.3971 10.4444 11.9349 10.1974 11.5722 9.83467C11.2094 9.47193 10.9624 9.00977 10.8623 8.50663C10.7622 8.00349 10.8136 7.48197 11.0099 7.00803C11.2062 6.53408 11.5387 6.12899 11.9652 5.84399C12.3917 5.55898 12.8932 5.40686 13.4062 5.40686C14.0939 5.40757 14.7533 5.68106 15.2396 6.16732C15.7259 6.65359 15.9994 7.31291 16.0001 8.00061H16ZM0.499969 8.00061C0.499855 8.2871 0.558834 8.57052 0.673219 8.83318C0.691531 8.48599 0.947844 8.22164 1.38409 8.10468C1.66357 8.0301 1.94954 7.98246 2.23809 7.96243C2.03651 7.88393 1.86863 7.73755 1.76342 7.54852C1.65822 7.3595 1.62227 7.13968 1.66179 6.92699C1.70131 6.7143 1.81382 6.52207 1.9799 6.38346C2.14599 6.24484 2.35524 6.16853 2.57157 6.16769C2.7879 6.16684 2.99774 6.24152 3.1649 6.37883C3.33206 6.51615 3.44606 6.7075 3.48724 6.91987C3.52841 7.13225 3.49419 7.35234 3.39046 7.54218C3.28673 7.73202 3.12 7.8797 2.91903 7.95977C3.21808 7.97894 3.51452 8.02748 3.80406 8.10468C4.23966 8.22121 4.49597 8.48555 4.5145 8.8328C4.63817 8.54744 4.6967 8.23811 4.68585 7.92729C4.675 7.61648 4.59504 7.31198 4.45177 7.03594C4.30851 6.7599 4.10555 6.51924 3.85763 6.33146C3.60971 6.14368 3.32307 6.01349 3.01854 5.95036C2.71401 5.88723 2.39924 5.89274 2.09711 5.96648C1.79498 6.04023 1.51307 6.18037 1.27187 6.37671C1.03068 6.57305 0.83626 6.82067 0.702743 7.10155C0.569226 7.38244 0.499968 7.68955 0.5 8.00055L0.499969 8.00061ZM3.00434 7.09708C3.00439 7.18191 2.97929 7.26485 2.9322 7.33541C2.88511 7.40598 2.81815 7.46099 2.7398 7.4935C2.66144 7.526 2.57521 7.53455 2.492 7.51804C2.40879 7.50154 2.33234 7.46073 2.27232 7.40078C2.2123 7.34083 2.17141 7.26443 2.15482 7.18123C2.13822 7.09804 2.14667 7.0118 2.17909 6.93341C2.21152 6.85502 2.26645 6.788 2.33696 6.74083C2.40747 6.69367 2.49039 6.66847 2.57522 6.66843C2.68894 6.66848 2.79799 6.71365 2.87844 6.79402C2.95889 6.87439 3.00417 6.98336 3.00434 7.09708ZM2.59375 10.0944C2.37393 10.0943 2.15549 10.0596 1.9465 9.99143V9.09186C1.9465 9.02556 1.92016 8.96197 1.87328 8.91509C1.82639 8.8682 1.7628 8.84186 1.6965 8.84186C1.6302 8.84186 1.56661 8.8682 1.51972 8.91509C1.47284 8.96197 1.4465 9.02556 1.4465 9.09186V9.75052C1.34895 9.68662 1.25696 9.61462 1.1715 9.53527V8.87308C1.1715 8.71277 1.35703 8.62933 1.51334 8.58752C1.86616 8.49398 2.22984 8.44774 2.59484 8.45002C2.95927 8.44727 3.32242 8.49352 3.67453 8.58752C3.83078 8.62927 4.01659 8.71277 4.01659 8.87308V9.53483C3.9309 9.61401 3.83893 9.68612 3.74159 9.75046V9.09186C3.74159 9.02556 3.71525 8.96197 3.66837 8.91509C3.62149 8.8682 3.5579 8.84186 3.49159 8.84186C3.42529 8.84186 3.3617 8.8682 3.31482 8.91509C3.26793 8.96197 3.24159 9.02556 3.24159 9.09186V9.99121C3.03243 10.0595 2.81378 10.0943 2.59375 10.0944ZM0 8.00061C9.30811e-10 7.48762 0.152117 6.98616 0.437115 6.55962C0.722113 6.13308 1.12719 5.80064 1.60113 5.60432C2.07507 5.408 2.59657 5.35662 3.09971 5.45669C3.60284 5.55676 4.065 5.80377 4.42775 6.1665C4.7905 6.52923 5.03754 6.99137 5.13764 7.4945C5.23774 7.99763 5.1864 8.51914 4.99011 8.99309C4.79382 9.46704 4.46139 9.87214 4.03487 10.1572C3.60835 10.4422 3.10689 10.5943 2.59391 10.5944C1.90625 10.5935 1.247 10.32 0.760761 9.83376C0.274518 9.34752 0.000983252 8.68826 0.00015625 8.00061H0ZM11.3429 13.5641C11.39 13.564 11.4361 13.5506 11.4759 13.5255C12.3025 13.0028 13.0024 12.3028 13.525 11.4761C13.5587 11.4201 13.5692 11.3531 13.5541 11.2894C13.539 11.2258 13.4995 11.1706 13.4442 11.1357C13.3888 11.1008 13.322 11.089 13.2581 11.1028C13.1941 11.1166 13.1381 11.1549 13.1021 11.2096C12.6194 11.9733 11.9727 12.6199 11.2088 13.1024C11.1629 13.1314 11.1277 13.1745 11.1085 13.2252C11.0892 13.2759 11.087 13.3315 11.1021 13.3837C11.1172 13.4358 11.1489 13.4816 11.1923 13.5141C11.2357 13.5467 11.2885 13.5642 11.3428 13.5641H11.3429ZM2.89806 11.2096C2.8807 11.1814 2.85793 11.157 2.83107 11.1377C2.80421 11.1184 2.77379 11.1047 2.74158 11.0972C2.70937 11.0898 2.676 11.0888 2.64341 11.0943C2.61081 11.0998 2.57963 11.1118 2.55167 11.1294C2.52372 11.1471 2.49953 11.1701 2.48052 11.1971C2.46151 11.2242 2.44806 11.2547 2.44093 11.287C2.4338 11.3193 2.43314 11.3527 2.43899 11.3852C2.44483 11.4177 2.45707 11.4488 2.475 11.4766C2.99775 12.303 3.69777 13.0029 4.52434 13.5255C4.56411 13.5508 4.61029 13.5642 4.65744 13.5641C4.71159 13.5641 4.76426 13.5465 4.80753 13.5139C4.8508 13.4814 4.88234 13.4356 4.89739 13.3836C4.91244 13.3316 4.9102 13.2761 4.89101 13.2255C4.87181 13.1748 4.83669 13.1318 4.79094 13.1029C4.02735 12.62 3.38074 11.9733 2.89806 11.2096ZM4.52431 2.47561C3.69775 2.9982 2.99775 3.69806 2.475 4.52452C2.43959 4.58063 2.42792 4.6485 2.44255 4.71321C2.45718 4.77792 2.49693 4.83417 2.55303 4.86958C2.60914 4.90499 2.67701 4.91666 2.74172 4.90203C2.80644 4.8874 2.86268 4.84766 2.89809 4.79155C3.38077 4.02785 4.02735 3.38113 4.79094 2.89827C4.8199 2.88135 4.84517 2.85877 4.86523 2.83188C4.88528 2.80499 4.89973 2.77434 4.90769 2.74175C4.91565 2.70916 4.91698 2.67531 4.91158 2.6422C4.90619 2.60909 4.89418 2.5774 4.87629 2.54903C4.85839 2.52066 4.83496 2.49617 4.80741 2.47704C4.77985 2.45791 4.74873 2.44452 4.71589 2.43767C4.68305 2.43082 4.64916 2.43065 4.61626 2.43717C4.58335 2.44369 4.55209 2.45676 4.52434 2.47561H4.52431ZM13.525 4.52452C13.5425 4.55229 13.5544 4.58323 13.56 4.6156C13.5656 4.64796 13.5647 4.6811 13.5575 4.71313C13.5502 4.74517 13.5368 4.77546 13.5178 4.80228C13.4989 4.82911 13.4748 4.85194 13.4471 4.86947C13.4193 4.88701 13.3884 4.8989 13.356 4.90447C13.3236 4.91005 13.2905 4.90919 13.2585 4.90195C13.2264 4.89472 13.1961 4.88124 13.1693 4.8623C13.1425 4.84336 13.1197 4.81932 13.1021 4.79155C12.6192 4.02793 11.9725 3.38123 11.2088 2.89827C11.1808 2.88089 11.1564 2.85812 11.1372 2.83127C11.1179 2.80442 11.1042 2.77402 11.0968 2.74183C11.0893 2.70965 11.0884 2.67631 11.0939 2.64375C11.0995 2.61118 11.1114 2.58004 11.129 2.55212C11.1467 2.5242 11.1697 2.50005 11.1967 2.48107C11.2238 2.46209 11.2543 2.44865 11.2865 2.44154C11.3188 2.43442 11.3521 2.43377 11.3846 2.43962C11.4172 2.44547 11.4482 2.4577 11.4759 2.47561C12.3023 2.99832 13.0022 3.69817 13.525 4.52452Z" fill="#554D77"/>
</g>
<defs>
<clipPath id="clip0_12790_4210">
<rect width="16" height="16" fill="white"/>
</clipPath>
</defs>
</svg>
