<svg width="18" height="19" viewBox="0 0 18 19" fill="none" xmlns="http://www.w3.org/2000/svg">
<path d="M9.19557 3.89393C9.14323 3.84386 9.07359 3.81592 9.00115 3.81592C8.92872 3.81592 8.85908 3.84386 8.80674 3.89393L2.33447 10.0769C2.30699 10.1032 2.28512 10.1348 2.27019 10.1697C2.25527 10.2047 2.24759 10.2424 2.24764 10.2804L2.24658 16.0833C2.24658 16.3817 2.36511 16.6678 2.57609 16.8788C2.78707 17.0898 3.07321 17.2083 3.37158 17.2083H6.7501C6.89928 17.2083 7.04236 17.149 7.14784 17.0436C7.25333 16.9381 7.3126 16.795 7.3126 16.6458V11.8646C7.3126 11.79 7.34223 11.7184 7.39497 11.6657C7.44772 11.6129 7.51926 11.5833 7.59385 11.5833H10.4063C10.4809 11.5833 10.5525 11.6129 10.6052 11.6657C10.658 11.7184 10.6876 11.79 10.6876 11.8646V16.6458C10.6876 16.795 10.7469 16.9381 10.8524 17.0436C10.9578 17.149 11.1009 17.2083 11.2501 17.2083H14.6272C14.9256 17.2083 15.2117 17.0898 15.4227 16.8788C15.6337 16.6678 15.7522 16.3817 15.7522 16.0833V10.2804C15.7523 10.2424 15.7446 10.2047 15.7297 10.1697C15.7147 10.1348 15.6929 10.1032 15.6654 10.0769L9.19557 3.89393Z" fill="white"/>
<path d="M17.2586 8.91689L14.6289 6.40111V2.5835C14.6289 2.43431 14.5696 2.29124 14.4641 2.18575C14.3586 2.08026 14.2156 2.021 14.0664 2.021H12.3789C12.2297 2.021 12.0866 2.08026 11.9811 2.18575C11.8756 2.29124 11.8164 2.43431 11.8164 2.5835V3.7085L9.78013 1.76154C9.58958 1.56889 9.30622 1.4585 9.00001 1.4585C8.69486 1.4585 8.4122 1.56889 8.22165 1.76189L0.74392 8.91619C0.525248 9.12713 0.497826 9.47412 0.69681 9.70264C0.746778 9.76032 0.807961 9.80723 0.876634 9.84051C0.945307 9.87379 1.02004 9.89276 1.09627 9.89624C1.1725 9.89973 1.24865 9.88767 1.32008 9.86079C1.3915 9.83391 1.45671 9.79278 1.51173 9.7399L8.80665 2.76912C8.859 2.71905 8.92864 2.69111 9.00107 2.69111C9.0735 2.69111 9.14314 2.71905 9.19548 2.76912L16.4911 9.7399C16.5986 9.84296 16.7425 9.89921 16.8914 9.89631C17.0403 9.89341 17.1819 9.8316 17.2853 9.72443C17.5011 9.50084 17.4832 9.1317 17.2586 8.91689Z" fill="white"/>
</svg>
