<svg width="14" height="15" viewBox="0 0 14 15" fill="none" xmlns="http://www.w3.org/2000/svg">
<path d="M12.7168 1.86794C12.5077 1.65882 12.2019 1.5875 11.9035 1.68813L3.77124 4.79657C3.44792 4.91032 3.23836 5.21525 3.24974 5.55825C3.2598 5.89207 3.47767 6.17644 3.79486 6.274L7.04286 7.54275L8.31161 10.7903C8.40874 11.1071 8.69224 11.3249 9.02605 11.3359C9.03524 11.3359 9.04355 11.3359 9.0523 11.3359C9.38874 11.3359 9.68317 11.1254 9.78599 10.8201L12.9027 2.66507C12.9981 2.38288 12.9268 2.0775 12.7168 1.86794ZM9.05361 10.2859L7.87542 7.26932L9.02474 6.11957C9.1958 5.9485 9.1958 5.67157 9.02474 5.50094C8.85367 5.32988 8.57718 5.32988 8.40611 5.50094L7.23055 6.6765L4.2993 5.53157L11.9954 2.58938L9.05361 10.2859ZM6.4343 8.68419L2.4968 12.6217C2.41149 12.707 2.29949 12.7499 2.18749 12.7499C2.07549 12.7499 1.96349 12.707 1.87817 12.6217C1.70711 12.4506 1.70711 12.1741 1.87817 12.0031L5.81567 8.06557C5.98674 7.8945 6.26324 7.8945 6.4343 8.06557C6.60536 8.23663 6.60536 8.51313 6.4343 8.68419ZM7.3093 10.8717L5.5593 12.6217C5.47399 12.707 5.36199 12.7499 5.24999 12.7499C5.13799 12.7499 5.02599 12.707 4.94067 12.6217C4.76961 12.4506 4.76961 12.1741 4.94067 12.0031L6.69067 10.2531C6.86174 10.082 7.13824 10.082 7.3093 10.2531C7.48036 10.4241 7.48036 10.7006 7.3093 10.8717ZM1.87817 9.55919C1.70711 9.38813 1.70711 9.11163 1.87817 8.94057L3.62817 7.19057C3.79924 7.0195 4.07574 7.0195 4.2468 7.19057C4.41786 7.36163 4.41786 7.63813 4.2468 7.80919L2.4968 9.55919C2.41149 9.6445 2.29949 9.68738 2.18749 9.68738C2.07549 9.68738 1.96349 9.6445 1.87817 9.55919Z" fill="#7A2FF4"/>
</svg>
