<svg width="14" height="15" viewBox="0 0 14 15" fill="none" xmlns="http://www.w3.org/2000/svg">
<path d="M7.06415 9.47747L4.80082 11.7408C4.52679 12.0053 4.16082 12.1531 3.77999 12.1531C3.39915 12.1531 3.03318 12.0053 2.75915 11.7408C2.62476 11.6069 2.51812 11.4479 2.44535 11.2727C2.37259 11.0975 2.33513 10.9097 2.33513 10.72C2.33513 10.5303 2.37259 10.3425 2.44535 10.1673C2.51812 9.9921 2.62476 9.83301 2.75915 9.69914L5.02249 7.43581C5.13233 7.32596 5.19404 7.17698 5.19404 7.02164C5.19404 6.8663 5.13233 6.71732 5.02249 6.60747C4.91264 6.49763 4.76366 6.43592 4.60832 6.43592C4.45298 6.43592 4.304 6.49763 4.19415 6.60747L1.93082 8.87664C1.47486 9.37294 1.22826 10.0262 1.24253 10.7C1.25679 11.3738 1.53082 12.016 2.00737 12.4926C2.48393 12.9691 3.12616 13.2432 3.79996 13.2574C4.47376 13.2717 5.12702 13.0251 5.62332 12.5691L7.89249 10.3058C8.00233 10.196 8.06404 10.047 8.06404 9.89164C8.06404 9.7363 8.00233 9.58732 7.89249 9.47747C7.78264 9.36763 7.63366 9.30592 7.47832 9.30592C7.32298 9.30592 7.174 9.36763 7.06415 9.47747ZM12.0692 2.43081C11.5784 1.94314 10.9147 1.66943 10.2229 1.66943C9.53108 1.66943 8.86736 1.94314 8.37665 2.43081L6.10749 4.69414C6.0531 4.74853 6.00995 4.8131 5.98052 4.88416C5.95108 4.95522 5.93593 5.03139 5.93593 5.10831C5.93593 5.18523 5.95108 5.26139 5.98052 5.33245C6.00995 5.40352 6.0531 5.46808 6.10749 5.52247C6.16188 5.57686 6.22644 5.62001 6.29751 5.64944C6.36857 5.67888 6.44474 5.69403 6.52165 5.69403C6.59857 5.69403 6.67474 5.67888 6.7458 5.64944C6.81686 5.62001 6.88143 5.57686 6.93582 5.52247L9.19915 3.25914C9.47318 2.99467 9.83915 2.84687 10.22 2.84687C10.6008 2.84687 10.9668 2.99467 11.2408 3.25914C11.3752 3.39301 11.4819 3.5521 11.5546 3.72728C11.6274 3.90246 11.6648 4.09028 11.6648 4.27997C11.6648 4.46967 11.6274 4.65749 11.5546 4.83267C11.4819 5.00785 11.3752 5.16694 11.2408 5.30081L8.97749 7.56414C8.92281 7.61837 8.87941 7.68289 8.8498 7.75397C8.82018 7.82506 8.80494 7.9013 8.80494 7.97831C8.80494 8.05531 8.82018 8.13156 8.8498 8.20264C8.87941 8.27373 8.92281 8.33824 8.97749 8.39247C9.03171 8.44715 9.09623 8.49055 9.16732 8.52016C9.2384 8.54978 9.31465 8.56502 9.39165 8.56502C9.46866 8.56502 9.5449 8.54978 9.61599 8.52016C9.68707 8.49055 9.75159 8.44715 9.80582 8.39247L12.0692 6.12331C12.5568 5.6326 12.8305 4.96888 12.8305 4.27706C12.8305 3.58524 12.5568 2.92152 12.0692 2.43081ZM5.15082 9.34914C5.20533 9.4032 5.26997 9.44598 5.34104 9.47501C5.41211 9.50404 5.48822 9.51875 5.56499 9.51831C5.64176 9.51875 5.71786 9.50404 5.78893 9.47501C5.86 9.44598 5.92465 9.4032 5.97915 9.34914L8.84915 6.47914C8.959 6.3693 9.02071 6.22032 9.02071 6.06497C9.02071 5.90963 8.959 5.76065 8.84915 5.65081C8.73931 5.54096 8.59033 5.47925 8.43499 5.47925C8.27964 5.47925 8.13066 5.54096 8.02082 5.65081L5.15082 8.52081C5.09614 8.57504 5.05275 8.63955 5.02313 8.71064C4.99352 8.78172 4.97827 8.85797 4.97827 8.93497C4.97827 9.01198 4.99352 9.08823 5.02313 9.15931C5.05275 9.23039 5.09614 9.29491 5.15082 9.34914Z" fill="white"/>
</svg>
