<svg width="14" height="14" viewBox="0 0 14 14" fill="none" xmlns="http://www.w3.org/2000/svg">
<g clip-path="url(#clip0_14747_8385)">
<path opacity="0.4" d="M2.99766 3.53906H0.050293V13.0517H6.24468C7.55749 13.0517 8.74749 12.5187 9.61696 11.6492C9.91906 11.3471 10.1671 11.0106 10.3796 10.6557H2.99766V3.53906Z" fill="white"/>
<path opacity="0.7" d="M6.24458 3.53906H2.99756V10.6557H10.3807C10.7712 9.9631 11.0021 9.14766 11.0021 8.29538C11.0021 5.66854 8.87265 3.53906 6.2458 3.53906H6.24458Z" fill="white"/>
<path opacity="0.4" d="M13.9483 8.04723C13.9483 4.12477 10.7528 0.947754 6.83037 0.947754H2.99756V3.006H6.2458C9.15633 3.006 11.5351 5.38477 11.5351 8.2953C11.5351 9.14758 11.3226 9.94582 10.9677 10.6556H13.683C13.9851 9.41284 13.9495 8.04723 13.9495 8.04723H13.9483Z" fill="white"/>
</g>
<defs>
<clipPath id="clip0_14747_8385">
<rect width="14" height="12.1579" fill="white" transform="translate(0 0.920898)"/>
</clipPath>
</defs>
</svg>
