<svg width="20" height="20" viewBox="0 0 20 20" fill="none" xmlns="http://www.w3.org/2000/svg">
<g clip-path="url(#clip0_12782_5886)">
<path d="M15.9531 0.078125C15.4531 0.078125 15 0.246094 14.5898 0.546875L6.05469 4.92969C5.91406 5 5.75781 5.03906 5.60156 5.03906H1.07031C0.523438 5.03906 0.078125 5.48438 0.078125 6.03125V11.9844C0.078125 12.5312 0.523438 12.9766 1.07031 12.9766H1.60156C1.82031 12.9766 2 13.1523 2 13.375V18.9297C2 19.4766 2.44531 19.9219 2.99219 19.9219H5.03906C5.58594 19.9219 6.03125 19.4766 6.03125 18.9297V13.7227C6.03125 13.3633 6.29297 13.207 6.60938 13.3711L14.5898 17.4688C14.9961 17.7695 15.4531 17.9375 15.9531 17.9375C18.5586 17.9375 19.9219 13.4453 19.9219 9.00781C19.9219 4.57031 18.5586 0.078125 15.9531 0.078125ZM15.9531 15.9531C15.3789 15.9531 13.9688 13.5195 13.9688 9.00781C13.9688 4.49609 15.375 2.0625 15.9531 2.0625C16.5312 2.0625 17.9375 4.49609 17.9375 9.00781C17.9375 13.5195 16.5273 15.9531 15.9531 15.9531Z" fill="white"/>
</g>
<defs>
<clipPath id="clip0_12782_5886">
<rect width="20" height="20" fill="white"/>
</clipPath>
</defs>
</svg>
