<svg width="80" height="80" viewBox="0 0 80 80" fill="none" xmlns="http://www.w3.org/2000/svg">
<g id="Layer_2">
<path id="Vector" d="M40 2.5C32.5832 2.5 25.333 4.69934 19.1661 8.81989C12.9993 12.9404 8.1928 18.7971 5.35452 25.6494C2.51623 32.5016 1.77361 40.0416 3.22055 47.3159C4.6675 54.5902 8.23903 61.272 13.4835 66.5165C18.728 71.761 25.4098 75.3325 32.6841 76.7794C39.9584 78.2264 47.4984 77.4838 54.3506 74.6455C61.2029 71.8072 67.0596 67.0007 71.1801 60.8339C75.3007 54.667 77.5 47.4168 77.5 40C77.4964 30.0555 73.5444 20.5193 66.5125 13.4875C59.4807 6.45563 49.9445 2.5036 40 2.5ZM39.9 62.5C38.3951 62.5023 36.9203 62.0786 35.6462 61.2779C34.372 60.4771 33.3506 59.332 32.7 57.975H47.125C46.4664 59.331 45.4396 60.4744 44.162 61.2745C42.8844 62.0747 41.4075 62.4994 39.9 62.5ZM56.625 55.8H23.175C22.5982 55.8 22.0449 55.5709 21.637 55.163C21.2291 54.7551 21 54.2018 21 53.625C21 53.0482 21.2291 52.4949 21.637 52.087C22.0449 51.6792 22.5982 51.45 23.175 51.45H24.35V36.925C24.3544 33.1786 25.7091 29.5594 28.1657 26.7309C30.6223 23.9023 34.0162 22.0541 37.725 21.525V19.675C37.725 19.0982 37.9542 18.5449 38.362 18.137C38.7699 17.7292 39.3232 17.5 39.9 17.5C40.4768 17.5 41.0301 17.7292 41.438 18.137C41.8458 18.5449 42.075 19.0982 42.075 19.675V21.525C43.5326 21.7249 44.9549 22.1288 46.3 22.725C47.9205 23.4846 49.3933 24.5257 50.65 25.8C49.9422 25.6425 49.2065 25.6628 48.5085 25.8591C47.8105 26.0554 47.1719 26.4216 46.65 26.9249C46.4377 27.1405 46.2453 27.3748 46.075 27.6249C45.5339 28.4668 45.296 29.4681 45.4005 30.4634C45.505 31.4588 45.9458 32.3887 46.65 33.0999L47.125 33.5499L46.65 34.0249C46.2459 34.4285 45.9252 34.9078 45.7065 35.4355C45.4877 35.9631 45.3752 36.5287 45.3752 37.0999C45.3752 37.6711 45.4877 38.2366 45.7065 38.7643C45.9252 39.2919 46.2459 39.7712 46.65 40.1749C47.2325 40.7278 47.9525 41.1144 48.7351 41.2947C49.5177 41.475 50.3343 41.4422 51.1 41.1999C51.7395 40.997 52.322 40.6458 52.8 40.1749L53.275 39.6999L53.725 40.1749C54.2043 40.6622 54.797 41.023 55.45 41.2249V51.4499H56.625C57.2019 51.4499 57.7551 51.679 58.163 52.0869C58.5709 52.4948 58.8001 53.0481 58.8001 53.6249C58.8001 54.2018 58.5709 54.755 58.163 55.1629C57.7551 55.5708 57.2019 55.8 56.625 55.8ZM58.375 35.55C58.772 35.9634 58.9937 36.5143 58.9937 37.0875C58.9937 37.6607 58.772 38.2116 58.375 38.625C57.9608 39.0324 57.4059 39.265 56.825 39.2749C56.3205 39.2846 55.8304 39.1063 55.45 38.7749C55.4 38.7249 55.325 38.6999 55.275 38.6249L53.275 36.6248L51.275 38.6249C51.2 38.6999 51.15 38.7249 51.1 38.7749C50.7174 39.1027 50.2288 39.2804 49.725 39.2749C49.2961 39.2688 48.8785 39.1367 48.5241 38.8952C48.1697 38.6536 47.8941 38.3132 47.7316 37.9163C47.5691 37.5194 47.5269 37.0834 47.6102 36.6627C47.6934 36.242 47.8986 35.855 48.2 35.5499L50.2 33.5499L48.2 31.5249C47.8723 31.213 47.654 30.8037 47.5774 30.3578C47.5008 29.9119 47.5701 29.4532 47.775 29.0499C47.8787 28.8255 48.0228 28.6222 48.2 28.4499C48.6133 28.0528 49.1643 27.831 49.7375 27.831C50.3107 27.831 50.8617 28.0528 51.275 28.4499L53.275 30.4749L53.875 29.8749L55.275 28.4499C55.6933 28.0526 56.2481 27.8311 56.825 27.8311C57.4019 27.8311 57.9567 28.0526 58.375 28.4499C58.7721 28.8632 58.9939 29.4142 58.9939 29.9874C58.9939 30.5606 58.7721 31.1115 58.375 31.5249L56.35 33.5499L58.375 35.55Z" fill="#DFE4EF"/>
</g>
</svg>
