<svg width="20" height="20" viewBox="0 0 20 20" fill="none" xmlns="http://www.w3.org/2000/svg">
<g id="profile">
<path id="Layer 6" d="M7.36241 7.05C7.327 6.31368 7.58458 5.59329 8.07882 5.04634C8.57307 4.49939 9.26377 4.17039 9.99991 4.13125C10.736 4.17039 11.4267 4.49939 11.921 5.04634C12.4152 5.59329 12.6728 6.31368 12.6374 7.05C12.6716 7.7854 12.4134 8.50445 11.9192 9.05013C11.4251 9.59582 10.7351 9.92382 9.99991 9.9625C9.26473 9.92382 8.57473 9.59582 8.08057 9.05013C7.5864 8.50445 7.32822 7.7854 7.36241 7.05ZM18.7749 10C18.7776 11.742 18.2572 13.4446 17.2812 14.8875C17.2556 14.9316 17.2263 14.9734 17.1937 15.0125C16.3873 16.1737 15.3118 17.1224 14.059 17.7776C12.8063 18.4328 11.4136 18.775 9.99991 18.775C8.58619 18.775 7.19348 18.4328 5.94077 17.7776C4.68805 17.1224 3.61255 16.1737 2.80616 15.0125C2.77348 14.9734 2.74421 14.9316 2.71866 14.8875C1.9546 13.7494 1.46787 12.4481 1.29751 11.088C1.12715 9.7278 1.27789 8.34665 1.73766 7.05527C2.19743 5.7639 2.95342 4.59823 3.945 3.65176C4.93658 2.70529 6.13616 2.00436 7.44753 1.60518C8.75891 1.206 10.1456 1.11968 11.4963 1.35315C12.8471 1.58661 14.1243 2.13337 15.2256 2.94955C16.3269 3.76574 17.2217 4.82865 17.838 6.05304C18.4544 7.27743 18.7753 8.62922 18.7749 10ZM2.16241 10C2.16006 11.3316 2.49781 12.6418 3.14366 13.8063C4.49991 12.025 7.09991 10.9125 9.99991 10.9125C12.8999 10.9125 15.4999 12.025 16.8562 13.8063C17.4369 12.7598 17.7704 11.5943 17.8311 10.3991C17.8917 9.20383 17.6779 8.01056 17.206 6.91073C16.7341 5.81091 16.0166 4.83373 15.1086 4.0541C14.2006 3.27447 13.1262 2.71308 11.9676 2.41297C10.809 2.11286 9.59716 2.082 8.42483 2.32274C7.25251 2.56348 6.15086 3.06944 5.20434 3.80184C4.25782 4.53424 3.49155 5.47362 2.96427 6.548C2.43699 7.62237 2.16269 8.80321 2.16241 10Z" fill="white"/>
</g>
</svg>
