<svg width="20" height="20" viewBox="0 0 20 20" fill="none" xmlns="http://www.w3.org/2000/svg">
<g id="settings" clip-path="url(#clip0_14416_5172)">
<path id="Vector" d="M16.1918 10.8167C16.2251 10.55 16.2501 10.2833 16.2501 10C16.2501 9.71667 16.2251 9.45001 16.1918 9.18334L17.9501 7.80834C18.1084 7.68334 18.1501 7.45834 18.0501 7.275L16.3834 4.39167C16.2834 4.20834 16.0584 4.14167 15.8751 4.20834L13.8001 5.04167C13.3668 4.70834 12.9001 4.43334 12.3918 4.22501L12.0751 2.01667C12.0501 1.81667 11.8751 1.66667 11.6668 1.66667H8.33344C8.12511 1.66667 7.95011 1.81667 7.92511 2.01667L7.60844 4.22501C7.10011 4.43334 6.63344 4.71667 6.20011 5.04167L4.12511 4.20834C3.93344 4.13334 3.71678 4.20834 3.61678 4.39167L1.95011 7.275C1.84178 7.45834 1.89178 7.68334 2.05011 7.80834L3.80844 9.18334C3.77511 9.45001 3.75011 9.72501 3.75011 10C3.75011 10.275 3.77511 10.55 3.80844 10.8167L2.05011 12.1917C1.89178 12.3167 1.85011 12.5417 1.95011 12.725L3.61678 15.6083C3.71678 15.7917 3.94178 15.8583 4.12511 15.7917L6.20011 14.9583C6.63344 15.2917 7.10011 15.5667 7.60844 15.775L7.92511 17.9833C7.95011 18.1833 8.12511 18.3333 8.33344 18.3333H11.6668C11.8751 18.3333 12.0501 18.1833 12.0751 17.9833L12.3918 15.775C12.9001 15.5667 13.3668 15.2833 13.8001 14.9583L15.8751 15.7917C16.0668 15.8667 16.2834 15.7917 16.3834 15.6083L18.0501 12.725C18.1501 12.5417 18.1084 12.3167 17.9501 12.1917L16.1918 10.8167ZM10.0001 12.9167C8.39178 12.9167 7.08344 11.6083 7.08344 10C7.08344 8.39167 8.39178 7.08334 10.0001 7.08334C11.6084 7.08334 12.9168 8.39167 12.9168 10C12.9168 11.6083 11.6084 12.9167 10.0001 12.9167Z" fill="black"/>
</g>
<defs>
<clipPath id="clip0_14416_5172">
<rect width="20" height="20" fill="white"/>
</clipPath>
</defs>
</svg>
