<svg width="20" height="20" viewBox="0 0 20 20" fill="none" xmlns="http://www.w3.org/2000/svg">
<path d="M16.8906 9.49087V8.91016C16.8906 8.733 16.8604 8.55912 16.8469 8.38281H17.418C17.418 4.30536 14.0774 1 10 1C5.92261 1 2.61719 4.30536 2.61719 8.38281H3.1883C3.1748 8.55912 3.14453 8.733 3.14453 8.91016V9.49087C1.9425 9.73587 1 10.8362 1 12.1094C1 13.5632 2.21806 14.7812 3.67188 14.7812H5.25391V9.4375H4.19922V8.91016C4.19922 8.733 4.22703 8.5588 4.24299 8.38281H4.72656C4.72656 5.4704 7.08759 3.10938 10 3.10938C12.9124 3.10938 15.3086 5.4704 15.3086 8.38281H15.7922C15.8081 8.5588 15.8359 8.733 15.8359 8.91016V9.4375H14.7812V14.7812H15.8359V16.3633C15.8359 16.6542 15.5995 16.8906 15.3086 16.8906H12.6719V15.8359H10C9.12763 15.8359 8.41797 16.5456 8.41797 17.418C8.41797 18.2903 9.12763 19 10 19H12.6719V17.9453H15.3086C16.181 17.9453 16.8906 17.2356 16.8906 16.3633V14.7279C18.0927 14.4829 19 13.3826 19 12.1094C19 10.8362 18.0927 9.73587 16.8906 9.49087Z" fill="white"/>
</svg>
