<svg width="20" height="20" viewBox="0 0 20 20" fill="none" xmlns="http://www.w3.org/2000/svg">
<g clip-path="url(#clip0_12782_5882)">
<path d="M0.52471 16.803C0.264764 17.0648 0.0876776 17.3986 0.0158883 17.7621C-0.0559011 18.1256 -0.0191623 18.5024 0.12145 18.8447C0.262062 19.1871 0.500218 19.4797 0.805743 19.6853C1.11127 19.891 1.47041 20.0005 1.83767 20C2.08152 20.0005 2.32305 19.9522 2.54838 19.8582C2.7737 19.7641 2.97838 19.626 3.15062 19.4518L9.24516 13.3013L6.61925 10.6525L0.52471 16.803ZM15.7567 5.40368L18.4086 4.01873L19.7995 1.30752L18.5039 0L15.8174 1.40368L14.445 4.07993L11.2127 7.34187L12.5245 8.66563L15.7567 5.40368ZM16.3371 12.5133C16.253 12.5083 16.1725 12.4883 16.0871 12.4883C15.6342 12.4883 15.2048 12.582 14.8039 12.7318L7.18354 5.04152C7.33203 4.6369 7.42485 4.20356 7.42485 3.74649C7.42485 3.66032 7.40505 3.57914 7.4001 3.49422C7.26892 1.5448 5.67754 0 3.71243 0C3.14072 0 2.6049 0.141118 2.12105 0.374649L4.58733 2.86357C4.71726 2.99469 4.80636 3.14955 4.86576 3.31314C5.02786 3.75648 4.94 4.27224 4.58733 4.62941C4.34602 4.87293 4.02923 4.99532 3.71243 4.99532C3.56641 4.99532 3.42163 4.96285 3.28303 4.9104C3.11618 4.85027 2.96421 4.75442 2.83754 4.62941L0.371263 2.14049C0.129602 2.64091 0.00271578 3.18982 2.21636e-05 3.74649C2.21636e-05 5.72963 1.53077 7.33562 3.46246 7.468C3.54661 7.47299 3.62705 7.49298 3.71243 7.49298C4.16535 7.49298 4.59475 7.39931 4.99569 7.24945L12.616 14.9397C12.4598 15.3535 12.3781 15.792 12.3747 16.2348C12.3747 16.3209 12.3945 16.4021 12.3995 16.487C12.5306 18.4365 14.122 19.9813 16.0871 19.9813C16.6588 19.9813 17.1947 19.8402 17.6785 19.6066L15.2122 17.1177C15.088 16.9902 14.9929 16.8367 14.9338 16.6681C14.8505 16.4448 14.8325 16.2021 14.8818 15.9688C14.9312 15.7355 15.0459 15.5214 15.2122 15.3519C15.4536 15.1083 15.7703 14.986 16.0871 14.986C16.2332 14.986 16.3779 15.0184 16.5165 15.0709C16.6786 15.1321 16.8321 15.2207 16.962 15.3519L19.4283 17.8408C19.6597 17.3525 19.7995 16.8117 19.7995 16.2348C19.7995 14.2516 18.2688 12.6456 16.3371 12.5133Z" fill="white"/>
</g>
<defs>
<clipPath id="clip0_12782_5882">
<rect width="20" height="20" fill="white"/>
</clipPath>
</defs>
</svg>
