<svg width="14" height="14" viewBox="0 0 14 14" fill="none" xmlns="http://www.w3.org/2000/svg">
<path d="M6.99973 12.3393C7.75143 12.3393 8.3608 11.7299 8.3608 10.9783C8.3608 10.2266 7.75143 9.61719 6.99973 9.61719C6.24804 9.61719 5.63867 10.2266 5.63867 10.9783C5.63867 11.7299 6.24804 12.3393 6.99973 12.3393Z" fill="white"/>
<path d="M9.4867 9.14724C9.31965 9.14724 9.15302 9.08401 9.02485 8.95712C8.48011 8.41751 7.76106 8.12036 6.9997 8.12036C6.23835 8.12036 5.51929 8.41751 4.97455 8.95712C4.71778 9.21197 4.30164 9.21069 4.04658 8.95285C3.79151 8.69543 3.79322 8.27994 4.05085 8.02487C4.84297 7.24002 5.89014 6.80786 6.9997 6.80786C8.10926 6.80786 9.15644 7.24002 9.94855 8.02487C10.2062 8.27994 10.2079 8.69543 9.95283 8.95285C9.82465 9.08231 9.65546 9.14724 9.4867 9.14724Z" fill="white"/>
<path d="M11.3058 7.32846C11.1379 7.32846 10.97 7.26438 10.8418 7.1362C9.81641 6.11124 8.45178 5.54664 6.99957 5.54664C5.54736 5.54664 4.18274 6.11124 3.15735 7.1362C2.901 7.39255 2.48572 7.39255 2.22937 7.1362C1.97302 6.87986 1.97302 6.46436 2.22937 6.20823C3.50257 4.93524 5.1966 4.23413 6.99958 4.23413C8.80255 4.23413 10.4966 4.93524 11.7698 6.20822C12.0261 6.46436 12.0261 6.87985 11.7698 7.1362C11.6416 7.26437 11.4737 7.32846 11.3058 7.32846Z" fill="white"/>
<path d="M13.125 5.50946C12.9575 5.50946 12.79 5.4458 12.6619 5.31827C11.1434 3.80582 9.13281 2.9729 7 2.9729C4.86719 2.9729 2.85657 3.80582 1.33813 5.31827C1.08136 5.57397 0.666077 5.57333 0.410157 5.31635C0.154237 5.05957 0.155091 4.64408 0.411868 4.38816C2.1781 2.62918 4.5177 1.6604 7 1.6604C9.4823 1.6604 11.8219 2.62918 13.5881 4.38815C13.8449 4.64407 13.8458 5.05957 13.5898 5.31634C13.4617 5.44516 13.2933 5.50946 13.125 5.50946Z" fill="white"/>
</svg>
